# AST/ASF file generated using VICON BodyLanguage
# -----------------------------------------------
:version 1.10
:name VICON
:units
  mass 1.0
  length 0.45
  angle deg
:documentation
   .ast/.asf automatically generated from VICON data using
   VICON BodyBuilder and BodyLanguage model FoxedUp or BRILLIANT.MOD
:root
   order TX TY TZ RX RY RZ
   axis XYZ
   position 0 0 0  
   orientation 0 0 0 
:bonedata
  begin
     id 1 
     name lhipjoint
     direction 0.677091 -0.635792 0.370561 
     length 2.74323 
     axis 0 0 0  XYZ
  end
  begin
     id 2 
     name lfemur
     direction 0.34202 -0.939693 0  
     length 7.44995  
     axis 0 0 20  XYZ
    dof rx ry rz
    limits (-160.0 20.0)
           (-70.0 70.0)
           (-60.0 70.0)
  end
  begin
     id 3 
     name ltibia
     direction 0.34202 -0.939693 0   
     length 7.34467   
     axis 0 0 20   XYZ
    dof rx
    limits (-10.0 170.0)
  end
  begin
     id 4 
     name lfoot
     direction 0.101953 -0.280114 0.954537   
     length 1.72105   
     axis -90 7.62852e-016 20   XYZ
    dof rx rz
    limits (-45.0 90.0)
           (-70.0 20.0)
  end
  begin
     id 5 
     name ltoes
     direction 1.53537e-011 -4.21915e-011 1   
     length 0.865872   
     axis -90 7.62852e-016 20   XYZ
    dof rx
    limits (-90.0 20.0)
  end
  begin
     id 6 
     name rhipjoint
     direction -0.695735 -0.620586 0.361699   
     length 2.81045  
     axis 0 0 0  XYZ 
  end
  begin
     id 7 
     name rfemur
     direction -0.34202 -0.939693 0   
     length 7.29387   
     axis 0 0 -20   XYZ
    dof rx ry rz
    limits (-160.0 20.0)
           (-70.0 70.0)
           (-70.0 60.0)
  end
  begin
     id 8 
     name rtibia
     direction -0.34202 -0.939693 0   
     length 7.44935   
     axis 0 0 -20   XYZ
    dof rx
    limits (-10.0 170.0)
 end
 begin
     id 9 
     name rfoot
     direction -0.104163 -0.286184 0.952496   
     length 1.77731  
     axis -90 -7.62852e-016 -20   XYZ
    dof rx rz
    limits (-45.0 90.0)
           (-20.0 70.0)
  end
  begin
     id 10 
     name rtoes
     direction -1.5355e-011 -4.21888e-011 1   
     length 0.892424   
     axis -90 -7.62852e-016 -20   XYZ
    dof rx
    limits (-90.0 20.0)
  end
  begin
     id 11 
     name lowerback
     direction 0.0100202 0.997226 -0.0737589   
     length 2.16892   
     axis 0 0 0   XYZ
    dof rx ry rz
    limits (-20.0 45.0)
           (-30.0 30.0)
           (-30.0 30.0)
  end
  begin
     id 12 
     name upperback
     direction 0.00432398 0.999988 -0.00215019   
     length 2.17326   
     axis 0 0 0   XYZ
    dof rx ry rz
    limits (-20.0 45.0)
           (-30.0 30.0)
           (-30.0 30.0)
  end
  begin
     id 13 
     name thorax
     direction -0.00195047 0.999485 0.0320434   
     length 2.18139   
     axis 0 0 0   XYZ
    dof rx ry rz
    limits (-20.0 45.0)
           (-30.0 30.0)
           (-30.0 30.0)
  end
  begin
     id 14 
     name lowerneck
     direction 0.00782762 0.986241 0.165128   
     length 1.88415   
     axis 0 0 0   XYZ
    dof rx ry rz
    limits (-20.0 45.0)
           (-30.0 30.0)
           (-30.0 30.0)
  end
  begin
     id 15 
     name upperneck
     direction 0.00988667 0.981098 -0.193258   
     length 1.9242   
     axis 0 0 0   XYZ
    dof rx ry rz
    limits (-20.0 45.0)
           (-30.0 30.0)
           (-30.0 30.0)
  end
  begin
     id 16
     name head
     direction 0.00252199 0.996513 -0.0833958  
     length 1.93887  
     axis 0 0 0   XYZ
    dof rx ry rz
    limits (-20.0 45.0)
           (-30.0 30.0)
           (-30.0 30.0)
  end
  begin
     id 17 
     name lclavicle
     direction 0.929492 0.368193 -0.0218667  
     length 3.5955  
     axis 0 0 0   XYZ
    dof ry rz
    limits (-20.0 10.0)
           (0.0 20.0)
  end
  begin
     id 18 
     name lhumerus
     direction 1 -4.48972e-011 1.41911e-027   
     length 5.2795   
     axis 180 -30 -90   XYZ
    dof rx ry rz
    limits (-60.0 90.0)
           (-90.0 90.0)
           (-90.0 90.0)
  end
  begin
     id 19
     name lradius
     direction 1 -4.48963e-011 7.05772e-027   
     length 3.53504   
     axis 180 -30 -90   XYZ
    dof rx
    limits (-10.0 170.0)
  end
  begin
     id 20
     name lwrist
     direction 1 -4.48957e-011 9.54866e-027   
     length 1.76752   
     axis -7.69462e-015 90 90   XYZ
    dof ry
    limits (-180.0 0.0)
 end
  begin
     id 21 
     name lhand
     direction 1 -4.48979e-011 1.90973e-026   
     length 0.667948   
     axis -1.21857e-014 90 90   XYZ
    dof rx rz
    limits (-90.0 90.0)
           (-45.0 45.0)
  end
  begin
     id 22 
     name lfingers
     direction 1 -4.48987e-011 3.81946e-026   
     length 0.538517   
     axis -2.43714e-014 90 90   XYZ
    dof rx
    limits (0.0 90.0)
  end
  begin
     id 23
     name lthumb
     direction 0.707107 -6.34962e-011 0.707107   
     length 0.773206   
     axis -90 45 2.85299e-015   XYZ
    dof rx rz
    limits (-45.0 45.0)
           (-45.0 45.0)
  end
  begin
     id 24 
     name rclavicle
     direction -0.898763 0.414256 -0.143584   
     length 3.5176  
     axis 0 0 0   XYZ 
    dof ry rz
    limits (-10.0 20.0)
           (-20.0 0.0)
  end
  begin
     id 25 
     name rhumerus
     direction -1 -4.48971e-011 1.129e-027  
     length 5.25035   
     axis 180 30 90   XYZ
    dof rx ry rz
    limits (-90.0 60.0)
           (-90.0 90.0)
           (-90.0 90.0)
  end
  begin
     id 26 
     name rradius
     direction -1 -4.48955e-011 6.34664e-027   
     length 3.58884   
     axis 180 30 90   XYZ
    dof rx
    limits (-10.0 170.0)
  end
  begin
     id 27 
     name rwrist
     direction -1 -4.48966e-011 9.54866e-027   
     length 1.79442   
     axis -7.69462e-015 -90 -90   XYZ
    dof ry
    limits (-180.0 0.0)
  end
  begin
     id 28
     name rhand
     direction -1 -4.48973e-011 1.90973e-026   
     length 0.779235   
     axis -1.21857e-014 -90 -90   XYZ
    dof rx rz
    limits (-90.0 90.0)
           (-45.0 45.0)
  end
  begin
     id 29
     name rfingers
     direction -1 -4.48984e-011 3.81946e-026   
     length 0.62824   
     axis -2.43714e-014 -90 -90   XYZ
    dof rx
    limits (0.0 90.0)
  end
  begin
     id 30
     name rthumb
     direction -0.707107 -6.34968e-011 0.707107   
     length 0.90203   
     axis -90 -45 -2.85299e-015   XYZ
    dof rx rz
    limits (-45.0 45.0)
           (-45.0 45.0)
  end
:hierarchy
  begin
    root lhipjoint rhipjoint lowerback
    lhipjoint lfemur
    lfemur ltibia
    ltibia lfoot
    lfoot ltoes
    rhipjoint rfemur
    rfemur rtibia
    rtibia rfoot
    rfoot rtoes
    lowerback upperback
    upperback thorax
    thorax lowerneck lclavicle rclavicle
    lowerneck upperneck
    upperneck head
    lclavicle lhumerus
    lhumerus lradius
    lradius lwrist
    lwrist lhand lthumb
    lhand lfingers
    rclavicle rhumerus
    rhumerus rradius
    rradius rwrist
    rwrist rhand rthumb
    rhand rfingers
  end

#!OML:ASF I:\Random Stuff\random\construction\7_22_03\Session 2\subj1.ASF
:FULLY-SPECIFIED
:DEGREES
136
root 6.31528 17.6534 -13.6402 8.32917 -3.33269 -4.20217
lowerback 6.28852 0.171147 -3.62641
upperback -0.195128 -0.0564773 -0.385415
thorax -3.72837 0.0371398 1.64335
lowerneck -15.5067 -6.32358 -6.85225
upperneck 39.9036 -11.5144 9.12766
head 18.8071 -4.51895 3.17922
rclavicle -1.25234e-014 3.02153e-014
rhumerus -46.4438 -0.912007 -75.1669
rradius 85.0094
rwrist 21.3283
rhand -41.7043 42.5357
rfingers 7.12502
rthumb -14.6103 13.0704
lclavicle -1.25234e-014 3.02153e-014
lhumerus -31.7918 -10.4156 88.3526
lradius 36.0086
lwrist 35.0577
lhand -21.7393 61.6992
lfingers 7.12502
lthumb 4.66054 -91.6279
rfemur -22.0702 -2.12406 20.6727
rtibia 6.21026
rfoot 1.51674 -13.6862
rtoes 2.57176
lfemur -10.366 -6.78823 -16.0193
ltibia 20.7697
lfoot -18.3462 12.7101
ltoes -21.4011
137
root 6.27657 17.6553 -13.5605 8.48922 -3.49109 -4.08292
lowerback 6.21804 0.126287 -3.75547
upperback -0.224848 -0.11957 -0.287391
thorax -3.7158 0.00938632 1.82304
lowerneck -15.6285 -6.28286 -6.1891
upperneck 39.7929 -11.5459 8.83096
head 18.6816 -4.46482 2.90102
rclavicle -1.03368e-014 -7.95139e-016
rhumerus -46.6344 -0.732299 -75.2534
rradius 86.0302
rwrist 21.229
rhand -41.1256 42.0177
rfingers 7.12502
rthumb -14.0526 12.5128
lclavicle -1.03368e-014 -7.95139e-016
lhumerus -31.7558 -10.6438 88.6606
lradius 36.1588
lwrist 35.5573
lhand -22.1588 61.9197
lfingers 7.12502
lthumb 4.25538 -91.8569
rfemur -19.8261 -2.06406 20.5016
rtibia 3.65764e-014
rfoot 3.30528 -15
rtoes 7.54687
lfemur -9.83519 -7.03825 -16.071
ltibia 20.0686
lfoot -18.3574 13.1337
ltoes -21.2595
138
root 6.23024 17.6576 -13.4769 8.6179 -3.6515 -4.01976
lowerback 6.16628 0.115699 -3.73208
upperback -0.249164 -0.128551 -0.24395
thorax -3.7113 0.00513782 1.8556
lowerneck -15.7619 -6.28138 -5.75195
upperneck 39.8406 -11.5918 8.56376
head 18.6827 -4.44522 2.68257
rclavicle -8.15017e-015 7.95139e-016
rhumerus -46.7077 -0.855524 -75.3701
rradius 86.8546
rwrist 21.1872
rhand -40.4632 41.4876
rfingers 7.12502
rthumb -13.4143 11.9395
lclavicle -8.15017e-015 7.95139e-016
lhumerus -31.7564 -11.0927 88.955
lradius 36.4224
lwrist 36.0454
lhand -21.1241 61.6573
lfingers 7.12502
lthumb 5.2545 -91.5721
rfemur -20.513 -1.96081 20.4664
rtibia 3.18055e-015
rfoot 1.51233 -16.8033
rtoes 15.9991
lfemur -9.25227 -7.395 -16.0389
ltibia 19.3889
lfoot -18.4684 13.6024
ltoes -20.6523
139
root 6.18203 17.6579 -13.3929 8.76508 -3.76517 -3.89541
lowerback 6.10656 0.0911612 -3.67663
upperback -0.291577 -0.15452 -0.217971
thorax -3.72012 -0.00784742 1.85362
lowerneck -15.7605 -6.32074 -5.59782
upperneck 39.6894 -11.7411 8.66587
head 18.6084 -4.47071 2.66567
rclavicle 2.5842e-015 -1.98785e-014
rhumerus -46.8095 -0.864298 -75.4605
rradius 87.6408
rwrist 20.9335
rhand -40.0998 41.0576
rfingers 7.12502
rthumb -13.064 11.4867
lclavicle 2.5842e-015 -1.98785e-014
lhumerus -31.7509 -11.6486 89.2475
lradius 36.6358
lwrist 36.2995
lhand -21.4107 61.6972
lfingers 7.12502
lthumb 4.9778 -91.6188
rfemur -21.0781 -1.92377 20.3518
rtibia -4.77083e-015
rfoot 0.663539 -17.5638
rtoes 19.0132
lfemur -8.80831 -7.81028 -16.058
ltibia 18.9256
lfoot -18.6852 14.0796
ltoes -20.1119
140
root 6.12975 17.6424 -13.304 8.88123 -3.90339 -3.75892
lowerback 6.03669 0.0442369 -3.70748
upperback -0.337011 -0.212735 -0.0999072
thorax -3.72401 -0.034315 1.99831
lowerneck -15.6846 -6.31827 -5.6159
upperneck 39.4891 -11.779 8.81824
head 18.4911 -4.4756 2.72741
rclavicle 1.72943e-014 0
rhumerus -46.8251 -0.707563 -75.4323
rradius 88.26
rwrist 20.6925
rhand -39.9729 40.6796
rfingers 7.12502
rthumb -12.9417 11.1009
lclavicle 1.72943e-014 0
lhumerus -31.7369 -12.0759 89.6248
lradius 36.8003
lwrist 36.5578
lhand -20.3601 61.2949
lfingers 7.12502
lthumb 5.99216 -91.1901
rfemur -21.2073 -1.85703 20.2395
rtibia -1.11319e-014
rfoot -0.541155 -18.0361
rtoes 23.5281
lfemur -8.37556 -7.91106 -16.0949
ltibia 18.5694
lfoot -18.8309 14.3149
ltoes -20.4022
141
root 6.07113 17.6211 -13.2085 8.94919 -4.05756 -3.60111
lowerback 5.97008 -0.0167713 -3.77297
upperback -0.377789 -0.291672 0.0327638
thorax -3.72306 -0.0703684 2.17944
lowerneck -15.471 -6.38109 -6.07475
upperneck 39.4261 -11.7932 8.98473
head 18.4571 -4.53946 2.88828
rclavicle 1.90833e-014 -3.4191e-014
rhumerus -46.7517 -0.534741 -75.4172
rradius 88.7551
rwrist 20.4674
rhand -39.6927 40.4148
rfingers 7.12502
rthumb -12.6715 10.8192
lclavicle 1.90833e-014 -3.4191e-014
lhumerus -31.7257 -12.4256 90.0158
lradius 37.0006
lwrist 36.7761
lhand -21.109 61.3636
lfingers 7.12502
lthumb 5.26908 -91.2781
rfemur -21.1612 -1.75528 20.1575
rtibia -2.22639e-014
rfoot -0.5903 -18.3882
rtoes 24.5986
lfemur -7.89099 -7.71331 -16.1542
ltibia 18.2437
lfoot -18.8794 14.3171
ltoes -21.4127
142
root 6.00951 17.6006 -13.1065 8.97363 -4.14884 -3.33704
lowerback 5.8817 -0.0772205 -3.81898
upperback -0.408574 -0.369698 0.100928
thorax -3.69949 -0.107554 2.28244
lowerneck -15.8518 -6.10986 -5.90546
upperneck 39.8006 -11.5029 9.05245
head 18.7442 -4.36862 2.96217
rclavicle 1.55052e-014 -1.35174e-014
rhumerus -46.7209 -0.45257 -75.4026
rradius 89.3323
rwrist 20.2904
rhand -39.2613 40.1177
rfingers 7.12502
rthumb -12.2556 10.4968
lclavicle 1.55052e-014 -1.35174e-014
lhumerus -31.7458 -12.9348 90.4431
lradius 37.2471
lwrist 37.0553
lhand -20.2932 61.1169
lfingers 7.12502
lthumb 6.05671 -91.0103
rfemur -20.9422 -1.7088 20.0372
rtibia 4.92986e-014
rfoot -0.31686 -18.843
rtoes 24.5753
lfemur -7.35694 -7.57746 -16.319
ltibia 17.9107
lfoot -18.885 14.368
ltoes -22.8086
143
root 5.94825 17.5794 -12.9959 8.92241 -4.21405 -2.94963
lowerback 5.77194 -0.154984 -3.9077
upperback -0.423621 -0.472732 0.161744
thorax -3.64526 -0.157262 2.4036
lowerneck -15.8531 -6.12994 -5.72331
upperneck 39.7738 -11.4663 8.74157
head 18.669 -4.3664 2.78549
rclavicle -4.37326e-015 4.77083e-015
rhumerus -46.733 -0.182629 -75.2933
rradius 89.9844
rwrist 20.1495
rhand -38.8927 39.394
rfingers 7.12502
rthumb -11.9002 9.75216
lclavicle -4.37326e-015 4.77083e-015
lhumerus -31.7559 -13.3769 90.9174
lradius 37.4365
lwrist 37.2209
lhand -20.1966 61.0575
lfingers 7.12502
lthumb 6.15005 -90.9483
rfemur -20.5237 -1.69764 19.8233
rtibia -4.13472e-014
rfoot 0.260091 -19.4198
rtoes 24.177
lfemur -6.64756 -7.67777 -16.6345
ltibia 17.4283
lfoot -18.8396 14.6275
ltoes -23.6352
144
root 5.88479 17.56 -12.8782 8.77922 -4.33002 -2.56696
lowerback 5.70617 -0.20894 -3.91326
upperback -0.433716 -0.541193 0.191868
thorax -3.61355 -0.191378 2.4433
lowerneck -15.7758 -6.08897 -5.85709
upperneck 39.7845 -11.3806 8.78035
head 18.6588 -4.35037 2.8492
rclavicle 1.64991e-014 -5.56597e-015
rhumerus -46.7951 0.157556 -75.2182
rradius 90.6522
rwrist 20.0001
rhand -38.5275 38.442
rfingers 7.12502
rthumb -11.548 8.78009
lclavicle 1.64991e-014 -5.56597e-015
lhumerus -31.7578 -13.7231 91.3093
lradius 37.5067
lwrist 36.965
lhand -20.0637 60.9743
lfingers 7.12502
lthumb 6.27836 -90.8612
rfemur -20.0013 -1.63933 19.5952
rtibia -6.36111e-015
rfoot 1.32541 -20.1755
rtoes 23.7342
lfemur -5.69049 -7.9097 -16.9742
ltibia 16.7606
lfoot -18.8429 14.9898
ltoes -23.1424
145
root 5.81938 17.5467 -12.7558 8.59169 -4.48622 -2.30923
lowerback 5.68437 -0.233775 -3.71758
upperback -0.447659 -0.559058 0.222299
thorax -3.61565 -0.203519 2.3662
lowerneck -15.6689 -6.13352 -5.80634
upperneck 39.8512 -11.4453 8.67505
head 18.6617 -4.3849 2.78086
rclavicle 7.35503e-015 -1.03368e-014
rhumerus -46.8972 0.483073 -75.1972
rradius 91.2968
rwrist 19.9108
rhand -38.371 37.2922
rfingers 7.12502
rthumb -11.3971 7.62192
lclavicle 7.35503e-015 -1.03368e-014
lhumerus -31.7956 -13.9097 91.616
lradius 37.5365
lwrist 36.562
lhand -19.8965 60.7371
lfingers 7.12502
lthumb 6.4397 -90.6192
rfemur -19.5136 -1.53992 19.437
rtibia 1.43125e-014
rfoot 2.26968 -21.1117
rtoes 24.4966
lfemur -4.5825 -8.17969 -17.2071
ltibia 15.9812
lfoot -18.8711 15.4327
ltoes -22.404
146
root 5.75363 17.5366 -12.6326 8.44102 -4.59019 -2.17187
lowerback 5.65947 -0.306869 -3.39435
upperback -0.471716 -0.629823 0.329305
thorax -3.62344 -0.243474 2.30122
lowerneck -15.5718 -6.06413 -5.93652
upperneck 39.8533 -11.3531 8.79355
head 18.6491 -4.35656 2.884
rclavicle 2.48481e-015 -3.57812e-015
rhumerus -46.8977 1.00572 -75.1928
rradius 91.7375
rwrist 19.9836
rhand -38.3918 35.8939
rfingers 7.12502
rthumb -11.4171 6.22474
lclavicle 2.48481e-015 -3.57812e-015
lhumerus -31.7906 -13.662 91.8621
lradius 37.5331
lwrist 36.1303
lhand -19.7699 60.4064
lfingers 7.12502
lthumb 6.56199 -90.2848
rfemur -19.158 -1.47902 19.3933
rtibia -1.90833e-014
rfoot 3.1546 -21.9506
rtoes 25.3665
lfemur -3.53789 -8.49675 -17.3052
ltibia 15.2419
lfoot -19.0057 15.8722
ltoes -21.2265
